<svg viewBox="0 0 64 64" xmlns="http://www.w3.org/2000/svg"><circle cx="32" cy="32" fill="#e5efef" r="23"/><g stroke="#4c241d" stroke-linecap="round" stroke-linejoin="round" stroke-width="2"><path d="m13.356 46.643-2.357 5.501 5.5 2.357-.786 2.357 5.501 3.929 5.5-3.929h8.643l6.286-7.857 3.001-3.001h-31.431z" fill="#f53e28"/><path d="m55 49v2" fill="none"/><path d="m55 55v2" fill="none"/><path d="m51 53h2" fill="none"/><path d="m57 53h2" fill="none"/></g><path d="m61.082 37.667a1.069 1.069 0 1 1 -1.069-1.067 1.07 1.07 0 0 1 1.069 1.067z" fill="#4c241d"/><path d="m7.082 3.667a1.069 1.069 0 1 1 -1.069-1.067 1.07 1.07 0 0 1 1.069 1.067z" fill="#4c241d"/><circle cx="21.5" cy="5.5" fill="none" r="2.5" stroke="#4c241d" stroke-linecap="round" stroke-linejoin="round" stroke-width="2"/><path d="m44.001 41.143 3.928-8.643 8.437-4.5h-38.467l-2.971 3.714v5.5l-3.143 2.358 1.428 6.428h31.431l1.714-1.714z" fill="#ffce56" stroke="#4c241d" stroke-linecap="round" stroke-linejoin="round" stroke-width="2"/><path d="m59.716 26.214.785-4.715-5.5.786-6.286-2.357-7.072.785-6.643-2.713h-9l-5.572-2.001-6.286.785-4.715-1.571-3.929 4.715 3.143 5.5 3.144.786h4.714l1.4 1.786h38.467z" fill="#f53e28" stroke="#4c241d" stroke-linecap="round" stroke-linejoin="round" stroke-width="2"/></svg>